# xmcd
#
# Track frame offsets:
#  150
#  20940
#  32922
#  48187
#  63600
#  82075
#  95170
#  111710
#  122682
#  139715
#
# Disc length: 2041 seconds
#
# Revision: 0
# Processed by: cddbd v1.5.1PL2 Copyright (c) Steve Scherf et al.
# Submitted via: Collectorz.com_Music_Collector 6.10
#
DISCID=9807f70a
DTITLE=Low Budget Brothers - On A Monday
DYEAR=2002
DGENRE=Country
TTITLE0=I Would Be King
TTITLE1=Mexican Dust
TTITLE2=Careless Love
TTITLE3=Pony Blues
TTITLE4=Little Freedom
TTITLE5=If A Little Ain't Enough
TTITLE6=I Bees Troubled
TTITLE7=I Want To Boogie When My Baby Wants To Roll
TTITLE8=On A Monday
TTITLE9=Nobodys Fault But Mine
EXTD=
EXTT0=
EXTT1=
EXTT2=
EXTT3=
EXTT4=
EXTT5=
EXTT6=
EXTT7=
EXTT8=
EXTT9=
PLAYORDER=
